<svg xmlns = "http://www.w3.org/2000.svg" data-name="Layer 1" viewBox="0 0 2251.62 2188.7" width="auto"
	height="60%"
	style="margin:auto"><defs><style>.cls-1{fill:#a87c4f;}.cls-2{fill:#775738;}.cls-3{fill:#bca7ad;}.cls-4{fill:#221f20;}.cls-5{fill:#f1f2f2;}.cls-6{fill:#727374;}</style></defs><ellipse class="cls-1" cx="187" cy="1701.7" rx="187" ry="170"/><path class="cls-2" d="M1896,1729.7c0,166.28-35.7,322.67-98.51,459h-1421C313.7,2052.37,278,1896,278,1729.7c0-529.64,362.2-959,809-959S1896,1200.06,1896,1729.7Z"/><ellipse class="cls-1" cx="1087.5" cy="911.93" rx="331.5" ry="336.1"/><ellipse class="cls-1" cx="1086.77" cy="1208.24" rx="409.77" ry="415.46"/><ellipse class="cls-3" cx="1093" cy="1305.7" rx="237" ry="191"/><path class="cls-4" d="M1252,1473.2c0,75.39-73.76,136.5-164.75,136.5s-164.76-61.11-164.76-136.5c0-49.54,31.85-92.91,79.51-116.83a190.23,190.23,0,0,1,85.25-19.67q4.9,0,9.75.24c5.06.24,10.07.67,15,1.29,37.2,4.64,70.32,19.59,95,41.22C1234.9,1403.9,1252,1436.89,1252,1473.2Z"/><ellipse class="cls-4" cx="1087.04" cy="1181.67" rx="111.16" ry="67"/><ellipse class="cls-4" cx="1087.22" cy="1225.55" rx="67" ry="111.16"/><path class="cls-1" d="M2251.62,351.15c-36.28,76.12-95,171.32-190.52,257C1767.49,871.67,1376,821.41,1303.94,810.88c-83.56-123.33-78.57-200.34-65.79-242.59C1295.92,377.3,1697.94,284.59,2251.62,351.15Z"/><path class="cls-1" d="M191.66,0c-8.51,83.9-7.72,195.77,29.39,318.57,114.13,377.66,474.83,538,541.86,566.37,135.45-62,171.17-130.42,182.18-173.16C994.88,518.55,699.43,230.58,191.66,0Z"/><ellipse class="cls-5" cx="924" cy="911.73" rx="78" ry="101.98"/><ellipse class="cls-6" cx="923.7" cy="911.73" rx="32.78" ry="46.13"/><ellipse class="cls-5" cx="1230.54" cy="888.2" rx="188.54" ry="246.5"/><ellipse class="cls-6" cx="1231.28" cy="888.2" rx="79.23" ry="111.51"/><path class="cls-5" d="M1207,1379.45V1496.7h-95V1338.23C1149.2,1342.87,1182.32,1357.82,1207,1379.45Z"/><path class="cls-5" d="M1097,1336.94V1531.7h-95V1356.37a190.23,190.23,0,0,1,85.25-19.67Q1092.16,1336.7,1097,1336.94Z"/><ellipse class="cls-4" cx="1230.98" cy="887.85" rx="71.02" ry="71.15"/><ellipse class="cls-4" cx="923.61" cy="911.99" rx="26.61" ry="26.65"/><rect class="cls-4" x="613.65" y="1162.16" width="360.17" height="37" transform="translate(696.67 -238.69) rotate(30)"/><rect class="cls-4" x="602" y="1287.7" width="346" height="37"/><rect class="cls-4" x="1205.17" y="1156.38" width="315.22" height="37" transform="translate(-324.94 551.09) rotate(-20.48)"/><rect class="cls-4" x="1233" y="1273.7" width="346" height="37"/><rect class="cls-4" x="1190" y="1358.7" width="346" height="37" transform="translate(501.73 -358.5) rotate(18.31)"/><path class="cls-1" d="M1505,2122.2a531,531,0,0,1-4.15,66.5H722.15a531,531,0,0,1-4.15-66.5c0-252.12,176.18-456.5,393.5-456.5S1505,1870.08,1505,2122.2Z"/><path class="cls-1" d="M677,2121.7a156.3,156.3,0,0,1-15.09,67H318.09a156.3,156.3,0,0,1-15.09-67c0-93.89,83.72-170,187-170S677,2027.81,677,2121.7Z"/><path class="cls-1" d="M1907,2131.7a156,156,0,0,1-10.77,57H1543.77a156,156,0,0,1-10.77-57c0-93.89,83.72-170,187-170S1907,2037.81,1907,2131.7Z"/></svg>